<svg width="168" height="36" viewBox="0 0 168 36" fill="none" xmlns="http://www.w3.org/2000/svg">
<path d="M23.556 27.2665L23.2641 27.4333C22.5971 27.8085 21.8049 27.2874 21.8466 26.5369L21.9508 25.0986L22.0968 23.0557L22.3261 19.9288L22.5762 16.6351L22.8055 13.5708L23.0557 10.2771L23.1807 8.50521C23.2433 7.79645 24.0146 7.37953 24.6191 7.7756L15.6345 2.04297L14.8841 10.298L14.5922 13.5916L14.3212 16.656L14.0294 19.9496L12.862 32.6865L12.8203 33.2285C12.8203 33.291 12.8203 33.3536 12.8203 33.4161L39.2321 18.5113L39.0237 18.6363L23.556 27.2665Z" fill="white"/>
<path d="M46.2164 6.81662C45.2992 12.5492 40.7756 17.0728 39.5248 18.2193C39.5457 18.1985 39.5457 18.1776 39.5665 18.1568C39.5665 18.1568 39.5874 18.136 39.5874 18.1151C39.6082 18.0943 39.6082 18.0734 39.6291 18.0317C39.6291 18.0109 39.6499 17.99 39.6499 17.9692C39.6708 17.9067 39.6916 17.865 39.6916 17.8233C39.6916 17.8024 39.6916 17.7816 39.6916 17.7607C39.6916 17.7399 39.6916 17.719 39.6916 17.6982C39.6916 17.6773 39.6916 17.6565 39.6916 17.6357C39.6916 17.323 39.5457 17.0103 39.233 16.8227L24.8702 7.87976L24.6408 7.73384L15.6562 2.0429L15.6979 1.64683C15.7813 0.70876 16.5735 0 17.5115 0H31.8535C33.8339 0 35.8143 0.270996 37.7946 0.81299C39.775 1.35498 41.5469 2.23051 43.1103 3.41873C44.2986 4.3568 45.3409 5.48248 46.2164 6.81662Z" fill="white"/>
<path d="M48.4252 14.8212C48.4252 17.9064 47.8832 20.6998 46.8201 23.2222C45.7569 25.7445 44.2352 27.8916 42.3173 29.6636C40.3995 31.4355 38.1273 32.8113 35.5007 33.7702C32.8741 34.7291 30.0391 35.2086 26.9539 35.2086H14.5714C13.5708 35.2086 12.7578 34.3956 12.7578 33.4158L39.2113 18.511C39.2321 18.4901 39.253 18.4901 39.2738 18.4693C39.2947 18.4693 39.2947 18.4484 39.3155 18.4276C39.3364 18.4276 39.3364 18.4067 39.3572 18.4067C39.4198 18.3651 39.4406 18.3234 39.4823 18.2608C39.4823 18.24 39.5031 18.24 39.5031 18.2191C40.7331 17.0726 45.2566 12.549 46.1947 6.81641C46.4448 7.19163 46.695 7.60856 46.9034 8.02547C47.9249 9.90161 48.4252 12.1738 48.4252 14.8212Z" fill="white"/>
<path d="M39.25 16.864L24.8871 7.92113L24.6578 7.77521C24.0533 7.39998 23.2612 7.79605 23.2195 8.50482L23.0944 10.2767H6.45933C5.54211 10.2767 4.8125 11.0063 4.8125 11.9236C4.8125 12.8408 5.54211 13.5704 6.45933 13.5704H22.8234L22.5941 16.6347H8.06447C7.14724 16.6347 6.41764 17.3643 6.41764 18.2816C6.41764 19.1988 7.14724 19.9284 8.06447 19.9284H22.3439L22.1146 23.0553H17.6327C17.0699 23.0553 16.6113 23.5139 16.6113 24.0767C16.6113 24.6396 17.0699 25.0982 17.6327 25.0982H21.9687L21.8645 26.5365C21.8019 27.287 22.6149 27.8081 23.282 27.4329L23.5738 27.2662L39.0207 18.6151L39.2291 18.49C39.25 18.4692 39.2708 18.4692 39.2917 18.4483C39.3125 18.4483 39.3125 18.4275 39.3334 18.4066C39.3542 18.4066 39.3542 18.3858 39.3751 18.3858C39.4376 18.3441 39.4584 18.3024 39.5001 18.2399C39.5001 18.219 39.521 18.219 39.521 18.1982C39.5418 18.1773 39.5418 18.1565 39.5627 18.1356C39.5627 18.1356 39.5835 18.1148 39.5835 18.0939C39.6044 18.0731 39.6044 18.0522 39.6252 18.0106C39.6252 17.9897 39.6461 17.9689 39.6461 17.948C39.6669 17.8855 39.6877 17.8438 39.6877 17.8021C39.6877 17.7813 39.6877 17.7604 39.6877 17.7396C39.6877 17.7187 39.6877 17.6979 39.6877 17.677C39.6877 17.6562 39.6877 17.6353 39.6877 17.6145C39.7086 17.3643 39.5627 17.0516 39.25 16.864Z" fill="#F59E0B"/>
<path d="M1.66767 13.6127C2.58871 13.6127 3.33535 12.866 3.33535 11.945C3.33535 11.024 2.58871 10.2773 1.66767 10.2773C0.746643 10.2773 0 11.024 0 11.945C0 12.866 0.746643 13.6127 1.66767 13.6127Z" fill="#F59E0B"/>
<path d="M67.1242 8.25445C67.1034 8.42122 67.1451 8.58799 67.02 8.73391C66.9783 9.31759 66.8741 9.88044 66.7073 10.4433C66.6656 10.7143 66.6239 10.9644 66.6031 11.2354C66.5822 11.6523 66.3738 11.7774 65.9777 11.7774C64.2266 11.7566 62.4756 11.7774 60.7245 11.7774C59.8698 11.7774 59.0151 11.7983 58.1396 11.7774C57.7435 11.7566 57.5351 11.8816 57.4725 12.2777C57.41 12.778 57.3475 13.2992 57.2015 13.7995C57.1598 14.3832 57.0556 14.9668 56.8889 15.5297C56.8472 15.9466 57.1182 15.9258 57.41 15.9258C59.8281 15.9258 62.2463 15.9258 64.6644 15.9258C65.3315 15.9258 65.3523 15.9675 65.2272 16.6137C65.1855 16.8221 65.2272 17.0514 65.0813 17.2391C65.0396 17.8227 64.9354 18.4064 64.7686 18.9693C64.7478 19.136 64.7269 19.3028 64.7269 19.4696C64.7061 19.9282 64.4559 20.0533 64.039 20.0533C61.6626 20.0324 59.2861 20.0533 56.9305 20.0324C56.4094 20.0324 56.055 20.1158 55.9925 20.6995C55.9508 21.2623 55.8674 21.8252 55.7006 22.388C55.7006 22.4088 55.7006 22.4297 55.6798 22.4505C55.6173 23.0551 55.5339 23.6596 55.3671 24.2433C55.3463 24.6602 55.6381 24.6185 55.9091 24.6185C58.6608 24.6185 61.4333 24.6185 64.1849 24.6185C65.0813 24.6185 65.0813 24.6185 64.9354 25.5149C64.9145 25.5983 64.8728 25.6608 64.852 25.7442C64.8103 26.3279 64.7061 26.8907 64.5393 27.4744C64.4768 28.9753 64.4768 28.9753 63.0176 28.9753C58.7858 28.9753 54.5333 28.9753 50.3015 28.9753C49.8429 28.9753 49.6345 28.8919 49.7804 28.3916C49.8846 27.9956 49.9472 27.5786 50.0097 27.1617C50.1139 26.6614 50.1973 26.1611 50.3015 25.64C50.3432 25.098 50.4475 24.556 50.5934 24.014C50.6351 23.3678 50.781 22.7215 50.9061 22.0962C51.0103 21.4916 51.1145 20.8871 51.2188 20.2826C51.3021 19.7823 51.323 19.2611 51.5106 18.7608C51.5731 18.323 51.6565 17.8853 51.7191 17.4475C51.8441 16.7804 51.9484 16.0925 52.0734 15.4255C52.1568 14.946 52.2402 14.4874 52.3236 14.0079C52.4278 13.4451 52.5321 12.8614 52.6363 12.2986C52.7405 11.7357 52.8447 11.152 52.949 10.5892C53.0532 10.0055 53.1574 9.44267 53.2617 8.87983C53.2617 8.85898 53.2617 8.83814 53.2617 8.83814C53.5535 7.233 53.3034 7.504 54.8251 7.504C58.7024 7.48316 62.5798 7.504 66.4363 7.504C67.2701 7.42062 67.2701 7.42062 67.1242 8.25445Z" fill="white"/>
<path d="M119.924 25.3488C119.882 25.5573 119.84 25.7657 119.799 25.995C119.653 26.5579 119.694 27.1624 119.486 27.7044C119.257 29.3304 119.402 28.9968 118.089 29.0177C114.212 29.0385 110.355 29.0177 106.478 29.0177C105.79 29.0177 105.79 28.9968 105.915 28.3298C105.957 28.1213 105.936 27.892 106.061 27.7044C106.103 27.1207 106.207 26.5579 106.353 25.9742C106.436 25.4947 106.52 25.0361 106.603 24.5567C106.728 23.8896 106.832 23.2017 106.957 22.5346C107.041 22.0551 107.124 21.5965 107.208 21.1171C107.312 20.5542 107.416 19.9706 107.52 19.4077C107.625 18.8449 107.729 18.2612 107.833 17.6983C107.937 17.1355 108.041 16.5518 108.146 15.989C108.25 15.4261 108.354 14.8425 108.458 14.2796C108.563 13.7168 108.667 13.1331 108.771 12.5702C108.875 12.0283 108.959 11.4863 109.063 10.9651C109.167 10.3606 109.271 9.75604 109.376 9.15151C109.709 7.19199 109.376 7.58807 111.147 7.54637C112.169 7.52553 113.19 7.54637 114.212 7.54637C114.566 7.54637 114.754 7.62976 114.65 8.04668C114.545 8.4219 114.566 8.79713 114.42 9.17236C114.358 9.77689 114.274 10.3814 114.108 10.986C114.066 11.5071 113.983 12.0074 113.837 12.5077C113.774 13.1122 113.691 13.7376 113.503 14.3213C113.461 14.905 113.357 15.4678 113.19 16.0307C113.149 16.6144 113.044 17.1772 112.878 17.74C112.815 18.3237 112.732 18.8866 112.565 19.4494C112.502 19.9914 112.44 20.5334 112.273 21.0754C112.211 21.6591 112.127 22.2428 111.96 22.8056C111.981 23.4101 111.669 23.973 111.773 24.5984C114.295 24.5984 116.818 24.6192 119.34 24.6192C120.07 24.5983 120.07 24.5983 119.924 25.3488Z" fill="white"/>
<path d="M105.539 8.23355C105.456 8.67131 105.352 9.10907 105.268 9.56768C105.206 10.1514 105.122 10.7142 104.955 11.277C104.997 11.7565 104.768 11.8816 104.33 11.8816C101.787 11.8607 99.2228 11.8816 96.6796 11.8607C96.2001 11.8607 95.9083 11.965 95.8458 12.4653C95.7832 13.049 95.6998 13.6118 95.5331 14.1746C95.4705 14.5916 95.408 15.0293 95.3455 15.4462C95.3246 15.613 95.2829 15.7798 95.3663 15.9465C95.3663 15.9465 95.3663 15.9674 95.3872 15.9882C97.972 15.9882 100.557 16.0091 103.142 15.9882C103.621 15.9882 103.788 16.1133 103.642 16.5928C103.559 16.9055 103.496 17.2181 103.434 17.51C103.392 18.0728 103.288 18.6148 103.142 19.1568C103.079 20.074 103.058 20.0949 102.183 20.0949C99.8273 20.0949 97.4717 20.0949 95.1162 20.0949C94.866 20.0949 94.6159 20.074 94.4491 20.345C94.4074 20.9913 94.2823 21.6375 94.1364 22.2629C94.0322 23.0342 93.9279 23.8055 93.8029 24.5768C93.9696 24.7227 94.1781 24.681 94.3865 24.681C97.2216 24.681 100.057 24.681 102.892 24.681C103.455 24.681 103.517 24.7435 103.392 25.2855C103.329 25.5357 103.371 25.7858 103.225 26.0151C103.184 26.5571 103.1 27.0991 102.954 27.6411C102.954 27.6828 102.933 27.7036 102.933 27.7453C102.892 28.058 102.85 28.3707 102.808 28.6834C102.767 28.9961 102.537 29.0586 102.245 29.0586C101.099 29.0586 99.9524 29.0586 98.8059 29.0586C95.4288 29.0586 92.0518 29.0586 88.6748 29.0586C88.1953 29.0586 88.0911 28.8919 88.1745 28.4749C88.2578 28.1414 88.3204 27.787 88.3829 27.4326C88.4663 26.9323 88.4871 26.4112 88.6539 25.9109C88.6956 25.3689 88.7998 24.8269 88.9458 24.2849C88.9874 23.597 89.1542 22.9299 89.2793 22.2629C89.3835 21.6792 89.4878 21.1163 89.592 20.5535C89.6754 20.0115 89.7171 19.4695 89.8838 18.9483C89.9464 18.5523 90.0297 18.1354 90.0923 17.7393C90.1965 17.1764 90.3007 16.5928 90.405 16.0299C90.5092 15.4671 90.6134 14.8834 90.7177 14.3206C90.8219 13.7577 90.9261 13.174 91.0304 12.6112C91.1346 12.0484 91.2388 11.4647 91.343 10.9018C91.4473 10.3598 91.5307 9.81784 91.6349 9.27584C91.6974 8.83808 91.76 8.37946 91.8433 7.9417C91.885 7.71239 92.031 7.58732 92.2603 7.58732C92.4479 7.58732 92.6355 7.58732 92.8231 7.58732H104.976C105.602 7.52479 105.664 7.58732 105.539 8.23355Z" fill="white"/>
<path d="M89.8852 8.06782C89.6976 8.35966 89.51 8.65151 89.3224 8.9642C88.9471 9.65211 88.5719 10.34 88.1133 10.9863C87.8631 11.5283 87.5505 12.0286 87.1961 12.508C86.8834 13.0917 86.5707 13.6754 86.1746 14.2174C85.8619 14.8011 85.5492 15.3847 85.1532 15.9267C84.8613 16.4896 84.5486 17.0316 84.1734 17.5527C83.9024 18.0947 83.5689 18.6367 83.2145 19.137C82.881 19.7624 82.5266 20.3878 82.1097 20.9715C81.8595 21.4926 81.5468 21.9929 81.2133 22.4724C80.9423 22.9935 80.6504 23.5147 80.2961 23.9941C79.9834 24.5778 79.6707 25.1823 79.2746 25.7243C78.9619 26.308 78.6492 26.8917 78.2532 27.4337C78.2532 27.4754 78.2323 27.4962 78.2323 27.5379C77.461 28.9554 77.461 28.9554 75.835 28.9554C74.7719 28.9554 73.7296 28.9346 72.6665 28.9554C72.2078 28.9763 71.9785 28.8304 71.9785 28.3509C71.9785 28.0799 71.916 27.8298 71.8952 27.5588C71.7284 26.9334 71.645 26.2663 71.6033 25.6201C71.4782 25.1615 71.4157 24.7029 71.3949 24.2234C71.2489 23.5772 71.1447 22.931 71.103 22.2847C70.9779 21.847 70.9154 21.4092 70.8945 20.9715C70.7486 20.3044 70.6236 19.6373 70.5819 18.9494C70.4568 18.5325 70.3942 18.0947 70.3734 17.6361C70.2275 16.969 70.1024 16.302 70.0607 15.614C69.8939 14.9887 69.8106 14.3425 69.7689 13.6962C69.6229 13.2376 69.5813 12.779 69.5604 12.2995C69.4353 11.8618 69.3728 11.424 69.352 10.9863C69.1852 10.34 69.1018 9.6938 69.0601 9.04757C68.9142 8.6515 68.9142 8.23459 68.8517 7.81767C68.81 7.56752 68.935 7.44244 69.1852 7.44244C70.7278 7.44244 72.2704 7.44244 73.813 7.44244C74.0214 7.44244 74.1674 7.50498 74.1882 7.73428C74.2091 8.10951 74.2507 8.46389 74.2924 8.83912C74.355 9.40196 74.4175 9.98564 74.4801 10.5485C74.5426 11.153 74.6051 11.7576 74.6677 12.3621C74.7094 12.7998 74.8344 13.2376 74.7927 13.6754C74.9178 14.3008 74.9804 14.947 75.0012 15.5932C75.1054 16.156 75.1888 16.7397 75.1888 17.3026C75.2514 17.8446 75.3139 18.3866 75.3764 18.9286C75.439 19.5331 75.5015 20.1376 75.5849 20.7422C75.6474 21.2216 75.7308 21.6802 75.71 22.1597C75.7517 22.3264 75.7933 22.514 75.835 22.7017C76.0643 22.7225 76.0435 22.4515 76.1686 22.3681C76.4604 21.8261 76.7523 21.305 77.0233 20.763C77.3568 20.1585 77.6903 19.5539 78.0239 18.9494C78.2949 18.4491 78.5659 17.9488 78.8369 17.4276C79.1287 16.8856 79.4205 16.3437 79.7332 15.8017C80.0251 15.1763 80.3586 14.5717 80.7338 13.9881C81.0048 13.3835 81.3175 12.8207 81.6511 12.2787C81.9221 11.7784 82.193 11.2781 82.464 10.7569C82.8393 10.0899 83.1936 9.40196 83.5689 8.73489C83.8816 7.77597 84.4236 7.29652 85.5492 7.40075C86.8208 7.52583 88.1341 7.4216 89.4266 7.44244C90.0937 7.44244 90.177 7.58836 89.8852 8.06782Z" fill="white"/>
<path d="M167.16 7.6919C167.035 7.4209 166.701 7.52513 166.472 7.52513C165.158 7.52513 163.845 7.58767 162.532 7.50429C161.677 7.44175 161.198 7.73359 160.948 8.50489C160.948 8.54658 160.927 8.56743 160.927 8.60912C160.635 9.06773 160.364 9.54719 160.155 10.0475C159.843 10.4853 159.613 10.9856 159.363 11.465C159.092 11.9653 158.821 12.4656 158.55 12.9868C158.258 13.4871 157.946 13.9665 157.737 14.5085C157.362 15.0922 157.029 15.6967 156.737 16.3221C156.445 16.8016 156.153 17.3019 155.924 17.8439C155.59 18.365 155.298 18.907 155.027 19.4698C154.652 20.1369 154.298 20.8248 153.923 21.4919C153.61 21.9088 153.464 22.4717 153.026 22.9094C152.984 22.6801 152.964 22.5551 152.943 22.4091C152.901 22.0964 152.88 21.8046 152.839 21.4919C152.776 20.8874 152.713 20.2828 152.651 19.6783C152.588 19.0321 152.505 18.4067 152.442 17.7605C152.38 17.156 152.317 16.5514 152.234 15.9469C152.192 15.6342 152.171 15.3424 152.13 15.0297C152.13 14.8629 152.151 14.6753 152.046 14.5294C152.088 14.0499 151.942 13.5913 151.921 13.1118C151.859 12.5073 151.796 11.9028 151.713 11.2982C151.65 10.7354 151.588 10.1517 151.525 9.58888C151.463 9.04689 151.4 8.48404 151.358 7.94205C151.338 7.6919 151.233 7.58767 150.983 7.58767C149.441 7.58767 147.877 7.58767 146.335 7.58767C146.064 7.58767 145.959 7.71274 146.001 7.96289C146.105 8.50489 146.105 9.06773 146.293 9.58888C146.335 10.2768 146.439 10.9439 146.606 11.6109C146.626 12.1321 146.71 12.6115 146.814 13.1118C146.877 13.7164 146.939 14.3417 147.106 14.9254C147.085 15.2381 147.189 15.53 147.231 15.8218C147.314 16.4055 147.356 16.9683 147.523 17.5312C147.565 18.2191 147.669 18.8862 147.836 19.5532C147.898 20.1995 147.961 20.8457 148.127 21.4919C148.107 21.7629 148.148 22.0339 148.232 22.284C148.19 22.701 148.315 23.097 148.419 23.514C148.419 23.91 148.482 24.3061 148.586 24.6813C148.586 24.723 148.607 24.7647 148.628 24.8273C148.628 25.265 148.711 25.7028 148.836 26.1405C148.878 26.8285 148.982 27.4955 149.149 28.1626C149.19 29.0381 149.211 29.059 150.066 29.059C151.233 29.059 152.422 28.9964 153.589 29.0798C154.381 29.1424 154.861 28.8505 155.111 28.1209C155.111 28.1001 155.111 28.0792 155.132 28.0792C155.528 27.4955 155.903 26.8702 156.236 26.2448C156.653 25.7236 156.924 25.0983 157.258 24.5354C157.529 24.1602 157.758 23.7641 157.967 23.3472C158.342 22.826 158.655 22.2632 158.946 21.7004C159.405 21.0333 159.801 20.3245 160.197 19.5949C160.531 19.1155 160.802 18.6152 161.094 18.094C161.469 17.552 161.802 17.01 162.073 16.4263C162.469 15.9052 162.782 15.3215 163.095 14.7378C163.449 14.2584 163.741 13.7372 163.991 13.1952C164.366 12.7366 164.637 12.2155 164.887 11.6735C165.263 11.194 165.534 10.6312 165.846 10.0892C166.201 9.6931 166.326 9.19281 166.639 8.75504C166.743 8.60912 166.847 8.48405 166.91 8.33812C166.993 8.10882 167.264 7.94205 167.16 7.6919Z" fill="white"/>
<path d="M144.128 14.6542C144.086 14.0913 143.961 13.5493 143.732 13.0282C143.669 12.6738 143.523 12.3194 143.315 12.0276C143.231 11.6732 143.023 11.3814 142.794 11.1312C142.439 10.4224 141.918 9.85961 141.314 9.38016C140.605 8.71309 139.792 8.23363 138.875 7.90009C138.708 7.81671 138.541 7.73332 138.374 7.67079C136.602 7.02456 134.768 6.87864 132.913 7.00371C131.516 7.0871 130.14 7.33725 128.889 7.98348C127.993 8.31701 127.201 8.77562 126.45 9.3593C125.721 9.83876 125.095 10.4225 124.533 11.1104C124.053 11.5898 123.636 12.1318 123.303 12.7363C122.927 13.2783 122.615 13.8412 122.385 14.4457C122.073 15.0294 121.864 15.6339 121.718 16.2593C121.572 16.7179 121.447 17.1974 121.406 17.6768C121.239 18.7608 121.114 19.8448 121.26 20.9497C121.239 21.0122 121.26 21.0747 121.281 21.1373C121.281 21.7209 121.385 22.2838 121.572 22.8466C121.635 23.5137 121.948 24.0974 122.26 24.6811C122.51 25.2648 122.844 25.7651 123.282 26.2237C123.761 26.9116 124.407 27.4119 125.095 27.8288C125.158 27.9539 125.283 27.9956 125.408 28.0581C129.702 30.1427 133.955 30.1636 138.145 27.7871C138.937 27.4327 139.583 26.8907 140.167 26.2862C140.792 25.8276 141.272 25.2231 141.71 24.5977C142.127 24.1182 142.46 23.5762 142.71 22.9925C143.085 22.388 143.356 21.7418 143.544 21.0747C143.732 20.6161 143.878 20.1575 143.919 19.678C144.107 19.1152 144.169 18.5315 144.19 17.9478C144.19 17.8228 144.211 17.6768 144.211 17.5518C144.232 17.4475 144.253 17.3641 144.253 17.2599C144.357 16.3635 144.274 15.5089 144.128 14.6542ZM144.253 16.8013C144.253 16.6971 144.253 16.6137 144.253 16.5095C144.274 16.5929 144.274 16.6971 144.253 16.8013ZM138.687 19.3862C138.312 19.7823 138.166 20.2826 138.145 20.8246C138.082 20.8454 138.02 20.8871 137.978 20.9497C137.665 21.4916 137.311 22.0128 136.957 22.5339C136.894 22.6173 136.894 22.6799 136.936 22.7424C136.206 23.1593 135.581 23.6805 134.976 24.2433C134.768 24.2225 134.559 24.3058 134.372 24.3684C132.871 24.9312 131.349 24.9729 129.827 24.4518C129.661 24.3892 129.473 24.3267 129.285 24.3267C129.244 24.2433 129.181 24.1808 129.098 24.1391C128.535 23.7847 128.035 23.3886 127.618 22.8675C127.534 22.7632 127.43 22.6799 127.305 22.6382C127.222 21.9919 126.951 21.4291 126.596 20.908C126.534 20.4077 126.492 19.9282 126.43 19.4279C126.826 18.9068 126.721 18.3439 126.617 17.7602C126.93 17.3016 127.159 16.8222 127.034 16.2593L127.013 16.2385C127.534 15.8632 127.68 15.2587 127.847 14.675C127.93 14.675 128.014 14.6333 128.076 14.5499C128.472 13.9871 129.035 13.5702 129.39 12.9657C129.556 12.9657 129.681 12.8823 129.827 12.778C130.765 12.1527 131.787 11.6941 132.913 11.569C133.371 11.4856 133.809 11.4856 134.268 11.569C134.914 11.6941 135.56 11.84 136.165 12.1527C136.29 12.2152 136.436 12.2569 136.581 12.2361C136.915 12.653 137.332 12.9656 137.811 13.2158V13.195C137.853 13.6536 138.228 14.3206 138.604 14.6125C138.52 14.7167 138.52 14.8418 138.562 14.9669C138.791 15.6965 138.791 16.4469 138.791 17.2182C138.791 17.3641 138.791 17.5309 138.875 17.6351C138.875 17.656 138.875 17.6768 138.875 17.6977C138.875 17.7394 138.895 17.8019 138.937 17.8228C138.687 18.3648 138.562 18.8651 138.687 19.3862Z" fill="white"/>
</svg>
